G75*
%MOIN*%
%OFA0B0*%
%FSLAX24Y24*%
%IPPOS*%
%LPD*%
%AMOC8*
5,1,8,0,0,1.08239X$1,22.5*
%
%ADD10C,0.0594*%
%ADD11C,0.1660*%
%ADD12C,0.1601*%
%ADD13OC8,0.0600*%
%ADD14C,0.0520*%
%ADD15C,0.0660*%
%ADD16C,0.0520*%
%ADD17C,0.0600*%
%ADD18R,0.0413X0.0425*%
%ADD19R,0.0425X0.0413*%
%ADD20C,0.0650*%
%ADD21C,0.0396*%
%ADD22C,0.0160*%
%ADD23C,0.0240*%
D10*
X005660Y017977D03*
X005660Y018879D03*
X004660Y018428D03*
X003660Y018879D03*
X004660Y019330D03*
X003660Y019781D03*
X004660Y020231D03*
X003660Y020682D03*
X004660Y021133D03*
X003660Y021584D03*
X004660Y022035D03*
X003660Y022485D03*
X004660Y022936D03*
X003660Y023387D03*
X004660Y023838D03*
X003660Y024289D03*
X004660Y024739D03*
X003660Y025190D03*
X004660Y025641D03*
X005660Y025190D03*
X005660Y024289D03*
X005660Y023387D03*
X005660Y022485D03*
X005660Y021584D03*
X005660Y020682D03*
X005660Y019781D03*
X053069Y019666D03*
X053069Y018765D03*
X054069Y019216D03*
X055069Y019666D03*
X054069Y020117D03*
X055069Y020568D03*
X054069Y021019D03*
X055069Y021470D03*
X054069Y021920D03*
X055069Y022371D03*
X054069Y022822D03*
X055069Y023273D03*
X054069Y023724D03*
X055069Y024174D03*
X054069Y024625D03*
X055069Y025076D03*
X054069Y025527D03*
X055069Y025977D03*
X054069Y026428D03*
X053069Y025977D03*
X053069Y025076D03*
X053069Y024174D03*
X053069Y023273D03*
X053069Y022371D03*
X053069Y021470D03*
X053069Y020568D03*
D11*
X004660Y015226D03*
X004660Y028344D03*
D12*
X054069Y029131D03*
X054069Y016013D03*
D13*
X050829Y017875D03*
X049829Y017875D03*
X049829Y018875D03*
X050829Y018875D03*
X050829Y019875D03*
X049829Y019875D03*
X049829Y020875D03*
X049829Y021875D03*
X050829Y021875D03*
X050829Y020875D03*
X050829Y022875D03*
X049829Y022875D03*
X049829Y023875D03*
X050829Y023875D03*
X050829Y024875D03*
X049829Y024875D03*
X049829Y025875D03*
X050829Y025875D03*
X050829Y026875D03*
X049829Y026875D03*
X055471Y012090D03*
X055471Y011090D03*
X043428Y005251D03*
X042428Y005251D03*
X038291Y002751D03*
X029632Y002584D03*
X028632Y002584D03*
X027632Y002584D03*
X026632Y002584D03*
X025632Y002584D03*
X024632Y002584D03*
X023632Y002584D03*
X022632Y002584D03*
X021632Y002584D03*
X020632Y002584D03*
X020632Y003584D03*
X021632Y003584D03*
X022632Y003584D03*
X023632Y003584D03*
X024632Y003584D03*
X025632Y003584D03*
X026632Y003584D03*
X027632Y003584D03*
X028632Y003584D03*
X029632Y003584D03*
X008900Y017088D03*
X008900Y018088D03*
X007900Y018088D03*
X007900Y017088D03*
X007900Y019088D03*
X007900Y020088D03*
X008900Y020088D03*
X008900Y019088D03*
X008900Y021088D03*
X007900Y021088D03*
X007900Y022088D03*
X007900Y023088D03*
X008900Y023088D03*
X008900Y022088D03*
X008900Y024088D03*
X008900Y025088D03*
X007900Y025088D03*
X007900Y024088D03*
X007900Y026088D03*
X008900Y026088D03*
D14*
X014774Y026025D03*
X014774Y027025D03*
X014774Y025025D03*
X014774Y024025D03*
X017774Y024025D03*
X017774Y025025D03*
X017774Y026025D03*
X017774Y027025D03*
X023632Y027025D03*
X023632Y026025D03*
X023632Y025025D03*
X023632Y024025D03*
X026632Y024025D03*
X026632Y025025D03*
X026632Y026025D03*
X026632Y027025D03*
X032491Y027025D03*
X032491Y026025D03*
X032491Y025025D03*
X032491Y024025D03*
X035491Y024025D03*
X035491Y025025D03*
X035491Y026025D03*
X035491Y027025D03*
X041349Y027025D03*
X041349Y026025D03*
X041349Y025025D03*
X041349Y024025D03*
X044349Y024025D03*
X044349Y025025D03*
X044349Y026025D03*
X044349Y027025D03*
X044349Y031505D03*
X044349Y032505D03*
X044349Y033505D03*
X044349Y034505D03*
X041349Y034505D03*
X041349Y033505D03*
X041349Y032505D03*
X041349Y031505D03*
X035491Y031505D03*
X035491Y032505D03*
X035491Y033505D03*
X035491Y034505D03*
X032491Y034505D03*
X032491Y033505D03*
X032491Y032505D03*
X032491Y031505D03*
X026632Y031505D03*
X026632Y032505D03*
X026632Y033505D03*
X026632Y034505D03*
X023632Y034505D03*
X023632Y033505D03*
X023632Y032505D03*
X023632Y031505D03*
X017774Y031505D03*
X017774Y032505D03*
X017774Y033505D03*
X017774Y034505D03*
X014774Y034505D03*
X014774Y033505D03*
X014774Y032505D03*
X014774Y031505D03*
X006357Y032883D03*
X006357Y033883D03*
X006357Y034883D03*
X006357Y035883D03*
X003357Y035883D03*
X003357Y034883D03*
X003357Y033883D03*
X003357Y032883D03*
X014774Y018560D03*
X014774Y017560D03*
X014774Y016560D03*
X014774Y015560D03*
X017774Y015560D03*
X017774Y016560D03*
X017774Y017560D03*
X017774Y018560D03*
X023632Y018560D03*
X023632Y017560D03*
X023632Y016560D03*
X023632Y015560D03*
X026632Y015560D03*
X026632Y016560D03*
X026632Y017560D03*
X026632Y018560D03*
X032491Y018560D03*
X032491Y017560D03*
X032491Y016560D03*
X032491Y015560D03*
X035491Y015560D03*
X035491Y016560D03*
X035491Y017560D03*
X035491Y018560D03*
X041349Y018757D03*
X041349Y017757D03*
X041349Y016757D03*
X041349Y015757D03*
X044349Y015757D03*
X044349Y016757D03*
X044349Y017757D03*
X044349Y018757D03*
X044349Y010883D03*
X044349Y009883D03*
X044349Y008883D03*
X044349Y007883D03*
X041349Y007883D03*
X041349Y008883D03*
X041349Y009883D03*
X041349Y010883D03*
X035491Y010883D03*
X035491Y009883D03*
X035491Y008883D03*
X035491Y007883D03*
X032491Y007883D03*
X032491Y008883D03*
X032491Y009883D03*
X032491Y010883D03*
X026632Y010883D03*
X026632Y009883D03*
X026632Y008883D03*
X026632Y007883D03*
X023632Y007883D03*
X023632Y008883D03*
X023632Y009883D03*
X023632Y010883D03*
X017774Y010883D03*
X017774Y009883D03*
X017774Y008883D03*
X017774Y007883D03*
X014774Y007883D03*
X014774Y008883D03*
X014774Y009883D03*
X014774Y010883D03*
X008129Y010883D03*
X008129Y009883D03*
X008129Y008883D03*
X008129Y007883D03*
X005129Y007883D03*
X005129Y008883D03*
X005129Y009883D03*
X005129Y010883D03*
D15*
X003676Y011383D03*
X003676Y007383D03*
X009581Y007383D03*
X013321Y007383D03*
X013321Y011383D03*
X009581Y011383D03*
X013321Y015060D03*
X019227Y015060D03*
X022180Y015060D03*
X022180Y011383D03*
X019227Y011383D03*
X019227Y007383D03*
X022180Y007383D03*
X028085Y007383D03*
X031038Y007383D03*
X031038Y011383D03*
X028085Y011383D03*
X028085Y015060D03*
X031038Y015060D03*
X036943Y015060D03*
X039896Y015257D03*
X039896Y011383D03*
X036943Y011383D03*
X036943Y007383D03*
X039896Y007383D03*
X045802Y007383D03*
X045802Y011383D03*
X045802Y015257D03*
X045802Y019257D03*
X039896Y019257D03*
X036943Y019060D03*
X031038Y019060D03*
X028085Y019060D03*
X022180Y019060D03*
X019227Y019060D03*
X013321Y019060D03*
X013321Y023525D03*
X019227Y023525D03*
X022180Y023525D03*
X028085Y023525D03*
X031038Y023525D03*
X036943Y023525D03*
X039896Y023525D03*
X045802Y023525D03*
X045802Y027525D03*
X045802Y031005D03*
X045802Y035005D03*
X039896Y035005D03*
X036943Y035005D03*
X036943Y031005D03*
X039896Y031005D03*
X039896Y027525D03*
X036943Y027525D03*
X031038Y027525D03*
X028085Y027525D03*
X028085Y031005D03*
X031038Y031005D03*
X031038Y035005D03*
X028085Y035005D03*
X022180Y035005D03*
X019227Y035005D03*
X019227Y031005D03*
X022180Y031005D03*
X022180Y027525D03*
X019227Y027525D03*
X013321Y027525D03*
X013321Y031005D03*
X007810Y032383D03*
X013321Y035005D03*
X007810Y036383D03*
X002101Y036383D03*
X002101Y032383D03*
X051481Y013360D03*
X055481Y013360D03*
D16*
X054511Y006820D02*
X054511Y006300D01*
X053511Y006300D02*
X053511Y006820D01*
X052511Y006820D02*
X052511Y006300D01*
X051511Y006300D02*
X051511Y006820D01*
X051511Y003820D02*
X051511Y003300D01*
X052511Y003300D02*
X052511Y003820D01*
X053511Y003820D02*
X053511Y003300D01*
X054511Y003300D02*
X054511Y003820D01*
D17*
X053511Y009000D02*
X053511Y009600D01*
X052511Y009600D02*
X052511Y009000D01*
X051511Y009000D02*
X051511Y009600D01*
D18*
X052177Y007700D03*
X052866Y007700D03*
D19*
X051511Y005064D03*
X051511Y004376D03*
D20*
X007961Y004915D02*
X007961Y005565D01*
X006961Y005565D02*
X006961Y004915D01*
X005961Y004915D02*
X005961Y005565D01*
X005931Y003875D02*
X005931Y003225D01*
X006931Y003225D02*
X006931Y003875D01*
X007931Y003875D02*
X007931Y003225D01*
X007991Y012385D02*
X007991Y013035D01*
X006991Y013035D02*
X006991Y012385D01*
X005991Y012385D02*
X005991Y013035D01*
D21*
X002361Y004040D03*
X008181Y007090D03*
X010369Y006233D03*
X010566Y007021D03*
X016471Y006233D03*
X019227Y013517D03*
X028085Y013911D03*
X036943Y014304D03*
X043441Y009060D03*
X050381Y004620D03*
X050361Y001960D03*
X046786Y015485D03*
X036943Y022178D03*
X028085Y021785D03*
X019227Y021391D03*
X015880Y036942D03*
X016865Y037336D03*
X024739Y036942D03*
X025723Y037336D03*
X033597Y036942D03*
X034581Y037336D03*
X042455Y036942D03*
X043440Y037336D03*
X045802Y022572D03*
D22*
X045802Y019257D01*
X044349Y018757D02*
X043440Y018757D01*
X043440Y027025D01*
X044349Y027025D01*
X043440Y027025D02*
X043440Y034505D01*
X043440Y037336D01*
X042455Y036942D02*
X042455Y031505D01*
X041349Y031505D01*
X042455Y031505D02*
X042455Y024025D01*
X041349Y024025D01*
X042455Y024025D02*
X042455Y015757D01*
X041349Y015757D01*
X042455Y015757D02*
X042455Y008989D01*
X041349Y007883D01*
X041881Y007100D02*
X040761Y007100D01*
X035320Y001639D01*
X007152Y001649D01*
X006441Y002350D01*
X006441Y004720D01*
X006961Y005240D01*
X008181Y007090D02*
X009038Y006233D01*
X010369Y006233D01*
X010172Y006233D01*
X010566Y007021D02*
X010566Y008446D01*
X008129Y010883D01*
X012534Y010596D02*
X012534Y006233D01*
X013518Y005249D01*
X022573Y005249D01*
X023131Y004691D01*
X023131Y003083D01*
X022632Y002584D01*
X022131Y003083D02*
X022131Y004313D01*
X021983Y004462D01*
X013125Y004462D01*
X011747Y005840D01*
X011747Y025950D01*
X013321Y027525D01*
X016865Y027025D02*
X016865Y034580D01*
X016865Y037336D01*
X006038Y037336D01*
X004857Y036155D01*
X004857Y034383D01*
X003357Y032883D01*
X003357Y034883D02*
X004069Y035596D01*
X004069Y035958D01*
X005841Y037729D01*
X046392Y037729D01*
X049829Y034292D01*
X049829Y026875D01*
X050447Y027493D01*
X055251Y027493D01*
X056235Y026509D01*
X056235Y023163D01*
X055443Y022371D01*
X055069Y022371D01*
X054069Y021920D02*
X052237Y021920D01*
X051686Y021370D01*
X050324Y021370D01*
X049829Y020875D01*
X049148Y021194D02*
X049148Y017651D01*
X049542Y017257D01*
X050211Y017257D01*
X050829Y017875D01*
X050829Y014629D01*
X044580Y008380D01*
X043161Y008380D01*
X041881Y007100D01*
X043441Y009060D02*
X043440Y009062D01*
X043440Y010883D01*
X044349Y010883D01*
X043440Y010883D02*
X043440Y018757D01*
X039896Y019257D02*
X038715Y018076D01*
X038715Y006233D01*
X036943Y004462D01*
X028873Y004462D01*
X028632Y004222D01*
X028632Y003584D01*
X027632Y003584D02*
X027632Y004600D01*
X028282Y005249D01*
X036550Y005249D01*
X037928Y006627D01*
X037928Y033037D01*
X039896Y035005D01*
X043440Y034505D02*
X044349Y034505D01*
X035491Y034505D02*
X034581Y034505D01*
X034581Y037336D01*
X033597Y036942D02*
X033597Y031505D01*
X032491Y031505D01*
X033597Y031505D02*
X033597Y024025D01*
X032491Y024025D01*
X033597Y024025D02*
X033597Y015560D01*
X032491Y015560D01*
X033597Y015560D02*
X033597Y008989D01*
X032491Y007883D01*
X030251Y006627D02*
X029266Y005643D01*
X028085Y005643D01*
X027101Y004659D01*
X027101Y003052D01*
X026632Y002584D01*
X026117Y003068D02*
X026117Y004855D01*
X027691Y006430D01*
X028873Y006430D01*
X029463Y007021D01*
X029463Y025950D01*
X031038Y027525D01*
X034581Y027025D02*
X034581Y034505D01*
X031038Y035005D02*
X029069Y033037D01*
X029069Y007218D01*
X028676Y006824D01*
X027495Y006824D01*
X025632Y004962D01*
X025632Y003584D01*
X026117Y003068D02*
X025632Y002584D01*
X025131Y003083D02*
X025131Y005053D01*
X023361Y006824D01*
X021786Y006824D01*
X021392Y007218D01*
X021392Y010596D01*
X022180Y011383D01*
X019227Y011383D02*
X019227Y013517D01*
X017774Y010883D02*
X016865Y010883D01*
X016865Y018560D01*
X017774Y018560D01*
X016865Y018560D02*
X016865Y027025D01*
X017774Y027025D01*
X020605Y025950D02*
X020605Y006824D01*
X021392Y006037D01*
X022967Y006037D01*
X024131Y004872D01*
X024131Y003083D01*
X023632Y002584D01*
X024632Y002584D02*
X025131Y003083D01*
X024632Y003584D02*
X024632Y004962D01*
X023164Y006430D01*
X021589Y006430D01*
X020999Y007021D01*
X020999Y017879D01*
X022180Y019060D01*
X019227Y019060D02*
X019227Y021391D01*
X015880Y024025D02*
X014774Y024025D01*
X015880Y024025D02*
X015880Y031505D01*
X014774Y031505D01*
X015880Y031505D02*
X015880Y036942D01*
X007416Y036942D01*
X006357Y035883D01*
X006357Y032883D02*
X006038Y032564D01*
X006038Y027100D01*
X007888Y027100D01*
X008900Y026088D01*
X008340Y025585D02*
X006765Y025585D01*
X006629Y025722D01*
X004741Y025722D01*
X004660Y025641D01*
X004660Y024739D02*
X006430Y024739D01*
X006589Y024580D01*
X008360Y024580D01*
X008853Y024088D01*
X008900Y024088D01*
X008360Y023596D02*
X006785Y023596D01*
X006727Y023655D01*
X006629Y023753D01*
X006544Y023838D01*
X004660Y023838D01*
X004660Y022936D02*
X006658Y022936D01*
X007002Y022592D01*
X008380Y022592D01*
X008884Y022088D01*
X008900Y022088D01*
X008400Y021588D02*
X007022Y021588D01*
X006575Y022035D01*
X004660Y022035D01*
X003660Y021584D02*
X002888Y021962D01*
X002888Y025722D01*
X004266Y027100D01*
X006038Y027100D01*
X008340Y025585D02*
X008837Y025088D01*
X008900Y025088D01*
X008360Y023596D02*
X008869Y023088D01*
X008900Y023088D01*
X008400Y021588D02*
X008900Y021088D01*
X009778Y020210D01*
X009778Y016863D01*
X009188Y016273D01*
X008715Y016273D01*
X007900Y017088D01*
X008417Y017571D02*
X007102Y017571D01*
X006245Y018428D01*
X004660Y018428D01*
X004660Y019330D02*
X006327Y019330D01*
X007082Y018575D01*
X008413Y018575D01*
X008900Y018088D01*
X008417Y017571D02*
X008900Y017088D01*
X008900Y019088D02*
X008409Y019579D01*
X007062Y019579D01*
X006410Y020231D01*
X004660Y020231D01*
X004660Y021133D02*
X006493Y021133D01*
X007022Y020603D01*
X008388Y020603D01*
X008900Y020091D01*
X008900Y020088D01*
X012140Y017879D02*
X012140Y006037D01*
X013321Y004855D01*
X022180Y004855D01*
X022632Y004403D01*
X022632Y003584D01*
X022131Y003083D02*
X021632Y002584D01*
X021132Y003084D02*
X020014Y003084D01*
X019030Y004068D01*
X012928Y004068D01*
X011353Y005643D01*
X011353Y033037D01*
X013321Y035005D01*
X016865Y034580D02*
X016866Y034565D01*
X016871Y034551D01*
X016878Y034538D01*
X016887Y034527D01*
X016898Y034518D01*
X016911Y034511D01*
X016925Y034506D01*
X016940Y034505D01*
X017774Y034505D01*
X020211Y033037D02*
X020211Y006627D01*
X021195Y005643D01*
X022770Y005643D01*
X023632Y004781D01*
X023632Y003584D01*
X021632Y003584D02*
X021132Y003084D01*
X016865Y006627D02*
X016471Y006233D01*
X016865Y006627D02*
X016865Y010883D01*
X015880Y008989D02*
X014774Y007883D01*
X015880Y008989D02*
X015880Y015560D01*
X014774Y015560D01*
X015880Y015560D02*
X015880Y024025D01*
X020605Y025950D02*
X022180Y027525D01*
X025723Y027025D02*
X025723Y034505D01*
X026632Y034505D01*
X025723Y034505D02*
X025723Y037336D01*
X024739Y036942D02*
X024739Y031505D01*
X023632Y031505D01*
X024739Y031505D02*
X024739Y024025D01*
X023632Y024025D01*
X024739Y024025D02*
X024739Y015560D01*
X023632Y015560D01*
X024739Y015560D02*
X024739Y008989D01*
X023632Y007883D01*
X026632Y004781D02*
X027888Y006037D01*
X029069Y006037D01*
X029857Y006824D01*
X029857Y017879D01*
X031038Y019060D01*
X028085Y019060D02*
X028085Y021785D01*
X026632Y018560D02*
X025723Y018560D01*
X025723Y027025D01*
X026632Y027025D01*
X034581Y027025D02*
X035491Y027025D01*
X034581Y027025D02*
X034581Y018560D01*
X035491Y018560D01*
X034581Y018560D02*
X034581Y011792D01*
X035491Y010883D01*
X036943Y011383D02*
X036943Y014304D01*
X039896Y011383D02*
X039109Y010596D01*
X039109Y006037D01*
X037140Y004068D01*
X031235Y004068D01*
X030251Y003084D01*
X029132Y003084D01*
X028632Y002584D01*
X028131Y003083D02*
X028131Y004311D01*
X028676Y004855D01*
X036747Y004855D01*
X038321Y006430D01*
X038321Y025950D01*
X039896Y027525D01*
X036943Y022178D02*
X036943Y019060D01*
X045802Y014304D02*
X046786Y015289D01*
X046786Y015485D01*
X045802Y014304D02*
X045802Y011383D01*
X049829Y017875D02*
X050324Y018370D01*
X051639Y018370D01*
X052485Y019216D01*
X054069Y019216D01*
X054069Y020117D02*
X052205Y020117D01*
X051458Y019370D01*
X050311Y019370D01*
X049816Y018875D01*
X049829Y018875D01*
X049829Y019875D02*
X050324Y020370D01*
X051671Y020370D01*
X052319Y021019D01*
X054069Y021019D01*
X052154Y022822D02*
X051702Y022370D01*
X050324Y022370D01*
X049829Y021875D01*
X049148Y021194D01*
X049829Y022875D02*
X050324Y023370D01*
X051718Y023370D01*
X052071Y023724D01*
X054069Y023724D01*
X054069Y024625D02*
X051989Y024625D01*
X051734Y024370D01*
X050324Y024370D01*
X049829Y023875D01*
X049829Y024875D02*
X050324Y025370D01*
X051749Y025370D01*
X051906Y025527D01*
X054069Y025527D01*
X054069Y026428D02*
X053989Y026509D01*
X051904Y026509D01*
X051765Y026370D01*
X050324Y026370D01*
X049829Y025875D01*
X052154Y022822D02*
X054069Y022822D01*
X031038Y011383D02*
X030251Y010596D01*
X030251Y006627D01*
X026632Y004781D02*
X026632Y003584D01*
X027632Y002584D02*
X028131Y003083D01*
X026632Y010883D02*
X025723Y011792D01*
X025723Y018560D01*
X028085Y013911D02*
X028085Y011383D01*
X013321Y011383D02*
X012534Y010596D01*
X012140Y017879D02*
X013321Y019060D01*
X020211Y033037D02*
X022180Y035005D01*
D23*
X004660Y028344D02*
X002361Y026045D01*
X002361Y017524D01*
X004660Y015226D01*
X002361Y012927D01*
X002361Y004040D01*
X005931Y003550D02*
X005931Y001920D01*
X006871Y000980D01*
X049381Y000980D01*
X050361Y001960D01*
X050361Y004600D01*
X050381Y004620D01*
X050826Y005064D01*
X051511Y005064D01*
X052511Y006064D01*
X052511Y006560D01*
X051511Y006560D02*
X051511Y007034D01*
X052177Y007700D01*
X052866Y007700D02*
X053511Y007054D01*
X053511Y006560D01*
X051511Y004376D02*
X051511Y003560D01*
X046861Y006460D02*
X041960Y006460D01*
X038291Y002791D01*
X038291Y002751D01*
X046861Y006460D02*
X054069Y013668D01*
X054069Y016013D01*
X005991Y012710D02*
X005991Y005270D01*
X005961Y005240D01*
X005961Y003580D01*
X005931Y003550D01*
M02*
