%
M48
M72
T01C0.0236
T02C0.0320
T03C0.0394
T04C0.0400
T05C0.0433
T06C0.0440
T07C0.1201
T08C0.1260
%
T01
X2361Y4040
X8181Y7090
X10369Y6233
X10566Y7021
X16471Y6233
X19227Y13517
X28085Y13911
X36943Y14304
X43441Y9060
X50381Y4620
X50361Y1960
X46786Y15485
X36943Y22178
X28085Y21785
X19227Y21391
X15880Y36942
X16865Y37336
X24739Y36942
X25723Y37336
X33597Y36942
X34581Y37336
X42455Y36942
X43440Y37336
X45802Y22572
T02
X44349Y24025
X44349Y25025
X44349Y26025
X44349Y27025
X41349Y27025
X41349Y26025
X41349Y25025
X41349Y24025
X35491Y24025
X35491Y25025
X35491Y26025
X35491Y27025
X32491Y27025
X32491Y26025
X32491Y25025
X32491Y24025
X26632Y24025
X26632Y25025
X26632Y26025
X26632Y27025
X23632Y27025
X23632Y26025
X23632Y25025
X23632Y24025
X17774Y24025
X17774Y25025
X17774Y26025
X17774Y27025
X14774Y27025
X14774Y26025
X14774Y25025
X14774Y24025
X14774Y18560
X14774Y17560
X14774Y16560
X14774Y15560
X17774Y15560
X17774Y16560
X17774Y17560
X17774Y18560
X23632Y18560
X23632Y17560
X23632Y16560
X23632Y15560
X26632Y15560
X26632Y16560
X26632Y17560
X26632Y18560
X32491Y18560
X32491Y17560
X32491Y16560
X32491Y15560
X35491Y15560
X35491Y16560
X35491Y17560
X35491Y18560
X41349Y18757
X41349Y17757
X41349Y16757
X41349Y15757
X44349Y15757
X44349Y16757
X44349Y17757
X44349Y18757
X44349Y10883
X44349Y9883
X44349Y8883
X44349Y7883
X41349Y7883
X41349Y8883
X41349Y9883
X41349Y10883
X35491Y10883
X35491Y9883
X35491Y8883
X35491Y7883
X32491Y7883
X32491Y8883
X32491Y9883
X32491Y10883
X26632Y10883
X26632Y9883
X26632Y8883
X26632Y7883
X23632Y7883
X23632Y8883
X23632Y9883
X23632Y10883
X17774Y10883
X17774Y9883
X17774Y8883
X17774Y7883
X14774Y7883
X14774Y8883
X14774Y9883
X14774Y10883
X8129Y10883
X8129Y9883
X8129Y8883
X8129Y7883
X5129Y7883
X5129Y8883
X5129Y9883
X5129Y10883
X14774Y31505
X14774Y32505
X14774Y33505
X14774Y34505
X17774Y34505
X17774Y33505
X17774Y32505
X17774Y31505
X23632Y31505
X23632Y32505
X23632Y33505
X23632Y34505
X26632Y34505
X26632Y33505
X26632Y32505
X26632Y31505
X32491Y31505
X32491Y32505
X32491Y33505
X32491Y34505
X35491Y34505
X35491Y33505
X35491Y32505
X35491Y31505
X41349Y31505
X41349Y32505
X41349Y33505
X41349Y34505
X44349Y34505
X44349Y33505
X44349Y32505
X44349Y31505
X51511Y6560
X52511Y6560
X53511Y6560
X54511Y6560
X54511Y3560
X53511Y3560
X52511Y3560
X51511Y3560
X6357Y32883
X6357Y33883
X6357Y34883
X6357Y35883
X3357Y35883
X3357Y34883
X3357Y33883
X3357Y32883
T03
X4660Y25641
X3660Y25190
X4660Y24739
X3660Y24289
X4660Y23838
X3660Y23387
X4660Y22936
X3660Y22485
X4660Y22035
X5660Y22485
X5660Y23387
X5660Y24289
X5660Y25190
X5660Y21584
X5660Y20682
X5660Y19781
X4660Y20231
X3660Y19781
X4660Y19330
X3660Y18879
X4660Y18428
X5660Y17977
X5660Y18879
X3660Y20682
X4660Y21133
X3660Y21584
X53069Y21470
X53069Y22371
X54069Y21920
X55069Y21470
X54069Y21019
X55069Y20568
X54069Y20117
X53069Y19666
X53069Y18765
X54069Y19216
X55069Y19666
X53069Y20568
X55069Y22371
X54069Y22822
X55069Y23273
X54069Y23724
X55069Y24174
X54069Y24625
X55069Y25076
X54069Y25527
X55069Y25977
X54069Y26428
X53069Y25977
X53069Y25076
X53069Y24174
X53069Y23273
T04
X50829Y22875
X49829Y22875
X49829Y23875
X50829Y23875
X50829Y24875
X49829Y24875
X49829Y25875
X50829Y25875
X50829Y26875
X49829Y26875
X49829Y21875
X49829Y20875
X50829Y20875
X50829Y21875
X50829Y19875
X49829Y19875
X49829Y18875
X49829Y17875
X50829Y17875
X50829Y18875
X55471Y12090
X55471Y11090
X53511Y9300
X52511Y9300
X51511Y9300
X43428Y5251
X42428Y5251
X38291Y2751
X29632Y2584
X28632Y2584
X27632Y2584
X26632Y2584
X25632Y2584
X24632Y2584
X23632Y2584
X22632Y2584
X21632Y2584
X20632Y2584
X20632Y3584
X21632Y3584
X22632Y3584
X23632Y3584
X24632Y3584
X25632Y3584
X26632Y3584
X27632Y3584
X28632Y3584
X29632Y3584
X8900Y17088
X8900Y18088
X7900Y18088
X7900Y17088
X7900Y19088
X7900Y20088
X8900Y20088
X8900Y19088
X8900Y21088
X7900Y21088
X7900Y22088
X7900Y23088
X8900Y23088
X8900Y22088
X8900Y24088
X8900Y25088
X7900Y25088
X7900Y24088
X7900Y26088
X8900Y26088
T05
X7991Y12710
X6991Y12710
X5991Y12710
X5961Y5240
X6961Y5240
X7961Y5240
X7931Y3550
X6931Y3550
X5931Y3550
T06
X3676Y7383
X3676Y11383
X9581Y11383
X13321Y11383
X13321Y15060
X19227Y15060
X22180Y15060
X22180Y11383
X19227Y11383
X19227Y7383
X22180Y7383
X28085Y7383
X31038Y7383
X31038Y11383
X28085Y11383
X28085Y15060
X31038Y15060
X36943Y15060
X39896Y15257
X39896Y11383
X36943Y11383
X36943Y7383
X39896Y7383
X45802Y7383
X45802Y11383
X45802Y15257
X45802Y19257
X39896Y19257
X36943Y19060
X31038Y19060
X28085Y19060
X22180Y19060
X19227Y19060
X13321Y19060
X13321Y23525
X19227Y23525
X22180Y23525
X28085Y23525
X31038Y23525
X36943Y23525
X39896Y23525
X45802Y23525
X45802Y27525
X45802Y31005
X45802Y35005
X39896Y35005
X36943Y35005
X36943Y31005
X39896Y31005
X39896Y27525
X36943Y27525
X31038Y27525
X28085Y27525
X28085Y31005
X31038Y31005
X31038Y35005
X28085Y35005
X22180Y35005
X19227Y35005
X19227Y31005
X22180Y31005
X22180Y27525
X19227Y27525
X13321Y27525
X13321Y31005
X7810Y32383
X13321Y35005
X7810Y36383
X2101Y36383
X2101Y32383
X9581Y7383
X13321Y7383
X51481Y13360
X55481Y13360
T07
X54069Y16013
X54069Y29131
T08
X4660Y28344
X4660Y15226
M30
