G75*
%MOIN*%
%OFA0B0*%
%FSLAX24Y24*%
%IPPOS*%
%LPD*%
%AMOC8*
5,1,8,0,0,1.08239X$1,22.5*
%
%ADD10C,0.0120*%
%ADD11C,0.0030*%
D10*
X052191Y014848D02*
X052191Y030296D01*
X058569Y030296D01*
X058569Y014848D01*
X052191Y014848D01*
D11*
X051918Y004711D02*
X051918Y004587D01*
X051980Y004525D01*
X052041Y004525D01*
X052103Y004587D01*
X052103Y004464D01*
X052165Y004402D01*
X052103Y004587D02*
X052103Y004711D01*
X052286Y004834D02*
X052533Y004587D01*
X052471Y004525D01*
X052348Y004525D01*
X052286Y004587D01*
X052286Y004834D01*
X052348Y004896D01*
X052471Y004896D01*
X052533Y004834D01*
X052533Y004587D01*
X052654Y004525D02*
X052901Y004525D01*
X052778Y004525D02*
X052778Y004896D01*
X052901Y004772D01*
X053585Y007442D02*
X053523Y007504D01*
X053523Y007627D01*
X053461Y007565D01*
X053400Y007565D01*
X053338Y007627D01*
X053338Y007751D01*
X053523Y007751D02*
X053523Y007627D01*
X053706Y007627D02*
X053768Y007565D01*
X053891Y007565D01*
X053953Y007627D01*
X053706Y007874D01*
X053706Y007627D01*
X053953Y007627D02*
X053953Y007874D01*
X053891Y007936D01*
X053768Y007936D01*
X053706Y007874D01*
X054074Y007565D02*
X054321Y007565D01*
X054198Y007565D02*
X054198Y007936D01*
X054321Y007812D01*
M02*
