G75*
%MOIN*%
%OFA0B0*%
%FSLAX24Y24*%
%IPPOS*%
%LPD*%
%AMOC8*
5,1,8,0,0,1.08239X$1,22.5*
%
%ADD10C,0.0060*%
%ADD11C,0.0040*%
%ADD12C,0.0120*%
%ADD13C,0.0050*%
D10*
X008460Y002850D02*
X008460Y003350D01*
X008710Y003600D01*
X010210Y003600D01*
X010460Y003850D01*
X010460Y004350D01*
X010210Y004600D01*
X008710Y004600D01*
X008460Y004850D01*
X008460Y005350D01*
X008710Y005600D01*
X010210Y005600D01*
X010460Y005850D01*
X010460Y006350D01*
X010210Y006600D01*
X008710Y006600D01*
X008460Y006850D01*
X008460Y007350D01*
X008710Y007600D01*
X010210Y007600D01*
X010460Y007850D01*
X010460Y008350D01*
X010210Y008600D01*
X008710Y008600D01*
X008460Y008850D01*
X008460Y009350D01*
X008710Y009600D01*
X010210Y009600D01*
X010460Y009350D01*
X010460Y008850D01*
X010210Y008600D01*
X010589Y008987D02*
X010589Y009200D01*
X010696Y009307D01*
X010803Y009307D01*
X010910Y009200D01*
X011016Y009307D01*
X011123Y009307D01*
X011230Y009200D01*
X011230Y008987D01*
X011123Y008880D01*
X010696Y008880D02*
X010589Y008987D01*
X010910Y009094D02*
X010910Y009200D01*
X010460Y009850D02*
X010210Y009600D01*
X010489Y009780D02*
X010810Y009780D01*
X010703Y009994D01*
X010703Y010100D01*
X010810Y010207D01*
X011023Y010207D01*
X011130Y010100D01*
X011130Y009887D01*
X011023Y009780D01*
X010489Y009780D02*
X010489Y010207D01*
X010460Y010350D02*
X010460Y009850D01*
X010460Y010350D02*
X010210Y010600D01*
X008710Y010600D01*
X008460Y010850D01*
X008460Y011350D01*
X008710Y011600D01*
X008460Y011850D01*
X008460Y012350D01*
X008710Y012600D01*
X010210Y012600D01*
X010460Y012350D01*
X010460Y011850D01*
X010210Y011600D01*
X008710Y011600D01*
X008280Y011937D02*
X008173Y011830D01*
X008066Y011830D01*
X007960Y011937D01*
X007960Y012150D01*
X008066Y012257D01*
X008173Y012257D01*
X008280Y012150D01*
X008280Y011937D01*
X007960Y011937D02*
X007853Y011830D01*
X007746Y011830D01*
X007639Y011937D01*
X007639Y012150D01*
X007746Y012257D01*
X007853Y012257D01*
X007960Y012150D01*
X008016Y011357D02*
X007910Y011250D01*
X007910Y010930D01*
X008123Y010930D01*
X008230Y011037D01*
X008230Y011250D01*
X008123Y011357D01*
X008016Y011357D01*
X007696Y011144D02*
X007589Y011357D01*
X007696Y011144D02*
X007910Y010930D01*
X008460Y010350D02*
X008710Y010600D01*
X008460Y010350D02*
X008460Y009850D01*
X008710Y009600D01*
X008330Y009307D02*
X008330Y008880D01*
X007903Y009307D01*
X007796Y009307D01*
X007689Y009200D01*
X007689Y008987D01*
X007796Y008880D01*
X008460Y008350D02*
X008710Y008600D01*
X008460Y008350D02*
X008460Y007850D01*
X008710Y007600D01*
X008710Y006600D02*
X008460Y006350D01*
X008460Y005850D01*
X008710Y005600D01*
X010210Y005600D02*
X010460Y005350D01*
X010460Y004850D01*
X010210Y004600D01*
X010210Y003600D02*
X010460Y003350D01*
X010460Y002850D01*
X010210Y002600D01*
X008710Y002600D01*
X008460Y002850D01*
X008710Y003600D02*
X008460Y003850D01*
X008460Y004350D01*
X008710Y004600D01*
X010210Y006600D02*
X010460Y006850D01*
X010460Y007350D01*
X010210Y007600D01*
X010589Y008094D02*
X010803Y007880D01*
X010589Y008094D02*
X011230Y008094D01*
X011230Y008307D02*
X011230Y007880D01*
X014339Y008144D02*
X014980Y008144D01*
X014980Y008357D02*
X014980Y007930D01*
X015260Y007850D02*
X015260Y008350D01*
X015510Y008600D01*
X017010Y008600D01*
X017260Y008850D01*
X017260Y009350D01*
X017010Y009600D01*
X015510Y009600D01*
X015260Y009850D01*
X015260Y010350D01*
X015510Y010600D01*
X017010Y010600D01*
X017260Y010350D01*
X017260Y009850D01*
X017010Y009600D01*
X017389Y009150D02*
X017496Y009257D01*
X017603Y009257D01*
X018030Y008830D01*
X018030Y009257D01*
X017389Y009150D02*
X017389Y008937D01*
X017496Y008830D01*
X017260Y008350D02*
X017010Y008600D01*
X017260Y008350D02*
X017260Y007850D01*
X017010Y007600D01*
X015510Y007600D01*
X015260Y007850D01*
X015510Y007600D02*
X015260Y007350D01*
X015260Y006850D01*
X015510Y006600D01*
X017010Y006600D01*
X017260Y006850D01*
X017260Y007350D01*
X017010Y007600D01*
X017010Y006600D02*
X017260Y006350D01*
X017260Y005850D01*
X017010Y005600D01*
X015510Y005600D01*
X015260Y005850D01*
X015260Y006350D01*
X015510Y006600D01*
X015510Y005600D02*
X015260Y005350D01*
X015260Y004850D01*
X015510Y004600D01*
X017010Y004600D01*
X017260Y004850D01*
X017260Y005350D01*
X017010Y005600D01*
X017010Y004600D02*
X017260Y004350D01*
X017260Y003850D01*
X017010Y003600D01*
X015510Y003600D01*
X015260Y003850D01*
X015260Y004350D01*
X015510Y004600D01*
X015510Y003600D02*
X015260Y003350D01*
X015260Y002850D01*
X015510Y002600D01*
X017010Y002600D01*
X017260Y002850D01*
X017260Y003350D01*
X017010Y003600D01*
X014553Y007930D02*
X014339Y008144D01*
X014496Y008880D02*
X014389Y008987D01*
X014389Y009200D01*
X014496Y009307D01*
X014603Y009307D01*
X014710Y009200D01*
X014816Y009307D01*
X014923Y009307D01*
X015030Y009200D01*
X015030Y008987D01*
X014923Y008880D01*
X015260Y008850D02*
X015260Y009350D01*
X015510Y009600D01*
X015080Y009937D02*
X014973Y009830D01*
X015080Y009937D02*
X015080Y010150D01*
X014973Y010257D01*
X014760Y010257D01*
X014653Y010150D01*
X014653Y010044D01*
X014760Y009830D01*
X014439Y009830D01*
X014439Y010257D01*
X014439Y010830D02*
X014439Y011257D01*
X014546Y011257D01*
X014973Y010830D01*
X015080Y010830D01*
X015260Y010850D02*
X015260Y011350D01*
X015510Y011600D01*
X015260Y011850D01*
X015260Y012350D01*
X015510Y012600D01*
X017010Y012600D01*
X017260Y012350D01*
X017260Y011850D01*
X017010Y011600D01*
X015510Y011600D01*
X015260Y010850D02*
X015510Y010600D01*
X017010Y010600D02*
X017260Y010850D01*
X017260Y011350D01*
X017010Y011600D01*
X017389Y011887D02*
X017389Y012100D01*
X017496Y012207D01*
X017603Y012207D01*
X017710Y012100D01*
X017710Y011887D01*
X017603Y011780D01*
X017496Y011780D01*
X017389Y011887D01*
X017710Y011887D02*
X017816Y011780D01*
X017923Y011780D01*
X018030Y011887D01*
X018030Y012100D01*
X017923Y012207D01*
X017816Y012207D01*
X017710Y012100D01*
X017766Y011207D02*
X017660Y011100D01*
X017660Y010780D01*
X017873Y010780D01*
X017980Y010887D01*
X017980Y011100D01*
X017873Y011207D01*
X017766Y011207D01*
X017446Y010994D02*
X017660Y010780D01*
X017446Y010994D02*
X017339Y011207D01*
X017610Y010207D02*
X017610Y009780D01*
X017289Y010100D01*
X017930Y010100D01*
X015510Y008600D02*
X015260Y008850D01*
X014710Y009094D02*
X014710Y009200D01*
X011230Y010880D02*
X011123Y010880D01*
X010696Y011307D01*
X010589Y011307D01*
X010589Y010880D01*
X010460Y010850D02*
X010460Y011350D01*
X010210Y011600D01*
X010460Y010850D02*
X010210Y010600D01*
X008330Y010200D02*
X007689Y010200D01*
X008010Y009880D01*
X008010Y010307D01*
X012310Y014250D02*
X012560Y014000D01*
X013060Y014000D01*
X013310Y014250D01*
X013310Y014750D01*
X013060Y015000D01*
X012560Y015000D01*
X012310Y014750D01*
X012310Y014250D01*
D11*
X006680Y002907D02*
X006767Y002820D01*
X006940Y002820D01*
X007027Y002907D01*
X007027Y003080D01*
X006853Y003080D01*
X006680Y002907D02*
X006680Y003254D01*
X006767Y003340D01*
X006940Y003340D01*
X007027Y003254D01*
X007196Y003340D02*
X007543Y002820D01*
X007543Y003340D01*
X007711Y003340D02*
X007972Y003340D01*
X008058Y003254D01*
X008058Y002907D01*
X007972Y002820D01*
X007711Y002820D01*
X007711Y003340D01*
X007196Y003340D02*
X007196Y002820D01*
X007893Y003720D02*
X007720Y003893D01*
X008240Y003893D01*
X008240Y003720D02*
X008240Y004067D01*
X008153Y004236D02*
X008240Y004322D01*
X008240Y004496D01*
X008153Y004583D01*
X007980Y004583D01*
X007893Y004496D01*
X007893Y004409D01*
X007980Y004236D01*
X007720Y004236D01*
X007720Y004583D01*
X007943Y004670D02*
X007770Y004843D01*
X008290Y004843D01*
X008290Y004670D02*
X008290Y005017D01*
X008203Y005186D02*
X008290Y005272D01*
X008290Y005446D01*
X008203Y005533D01*
X008117Y005533D01*
X008030Y005446D01*
X008030Y005359D01*
X008030Y005446D02*
X007943Y005533D01*
X007856Y005533D01*
X007770Y005446D01*
X007770Y005272D01*
X007856Y005186D01*
X007843Y005820D02*
X007670Y005993D01*
X008190Y005993D01*
X008190Y005820D02*
X008190Y006167D01*
X008190Y006336D02*
X008190Y006683D01*
X008190Y006509D02*
X007670Y006509D01*
X007843Y006336D01*
X007806Y006920D02*
X007893Y006920D01*
X007980Y007007D01*
X007980Y007267D01*
X008153Y007267D02*
X007806Y007267D01*
X007720Y007180D01*
X007720Y007007D01*
X007806Y006920D01*
X008153Y006920D02*
X008240Y007007D01*
X008240Y007180D01*
X008153Y007267D01*
X007961Y007920D02*
X007961Y008440D01*
X008308Y008440D01*
X008135Y008180D02*
X007961Y008180D01*
X007619Y008180D02*
X007446Y008180D01*
X007277Y008180D02*
X007190Y008093D01*
X006930Y008093D01*
X006930Y007920D02*
X006930Y008440D01*
X007190Y008440D01*
X007277Y008354D01*
X007277Y008180D01*
X007103Y008093D02*
X007277Y007920D01*
X007446Y007920D02*
X007793Y007920D01*
X007446Y007920D02*
X007446Y008440D01*
X007793Y008440D01*
X010630Y007304D02*
X010630Y006957D01*
X010717Y006870D01*
X010890Y006870D01*
X010977Y006957D01*
X010977Y007130D01*
X010803Y007130D01*
X010630Y007304D02*
X010717Y007390D01*
X010890Y007390D01*
X010977Y007304D01*
X011146Y007390D02*
X011493Y006870D01*
X011493Y007390D01*
X011661Y007390D02*
X011922Y007390D01*
X012008Y007304D01*
X012008Y006957D01*
X011922Y006870D01*
X011661Y006870D01*
X011661Y007390D01*
X011146Y007390D02*
X011146Y006870D01*
X011103Y006483D02*
X010756Y006483D01*
X011103Y006136D01*
X011190Y006222D01*
X011190Y006396D01*
X011103Y006483D01*
X010756Y006483D02*
X010670Y006396D01*
X010670Y006222D01*
X010756Y006136D01*
X011103Y006136D01*
X011190Y005967D02*
X011190Y005620D01*
X011190Y005533D02*
X011190Y005186D01*
X010843Y005533D01*
X010756Y005533D01*
X010670Y005446D01*
X010670Y005272D01*
X010756Y005186D01*
X010670Y004843D02*
X011190Y004843D01*
X011190Y004670D02*
X011190Y005017D01*
X010843Y004670D02*
X010670Y004843D01*
X010880Y004433D02*
X010880Y004086D01*
X010620Y004346D01*
X011140Y004346D01*
X011140Y003917D02*
X011140Y003570D01*
X011153Y003533D02*
X011067Y003533D01*
X010980Y003446D01*
X010980Y003186D01*
X011153Y003186D01*
X011240Y003272D01*
X011240Y003446D01*
X011153Y003533D01*
X011140Y003743D02*
X010620Y003743D01*
X010793Y003570D01*
X010720Y003533D02*
X010806Y003359D01*
X010980Y003186D01*
X011240Y003017D02*
X011240Y002670D01*
X011240Y002843D02*
X010720Y002843D01*
X010893Y002670D01*
X014520Y002893D02*
X014693Y002720D01*
X014520Y002893D02*
X015040Y002893D01*
X015040Y002720D02*
X015040Y003067D01*
X014953Y003236D02*
X015040Y003322D01*
X015040Y003496D01*
X014953Y003583D01*
X014867Y003583D01*
X014780Y003496D01*
X014780Y003236D01*
X014953Y003236D01*
X014780Y003236D02*
X014606Y003409D01*
X014520Y003583D01*
X014743Y003670D02*
X014570Y003843D01*
X015090Y003843D01*
X015090Y003670D02*
X015090Y004017D01*
X014830Y004186D02*
X014830Y004533D01*
X014693Y004720D02*
X014520Y004893D01*
X015040Y004893D01*
X015040Y004720D02*
X015040Y005067D01*
X015040Y005236D02*
X014693Y005583D01*
X014606Y005583D01*
X014520Y005496D01*
X014520Y005322D01*
X014606Y005236D01*
X015040Y005236D02*
X015040Y005583D01*
X015040Y005770D02*
X015040Y006117D01*
X015040Y005943D02*
X014520Y005943D01*
X014693Y005770D01*
X014606Y006286D02*
X014520Y006372D01*
X014520Y006546D01*
X014606Y006633D01*
X014953Y006286D01*
X015040Y006372D01*
X015040Y006546D01*
X014953Y006633D01*
X014606Y006633D01*
X014722Y006920D02*
X014461Y006920D01*
X014461Y007440D01*
X014722Y007440D01*
X014808Y007354D01*
X014808Y007007D01*
X014722Y006920D01*
X014293Y006920D02*
X014293Y007440D01*
X013946Y007440D02*
X014293Y006920D01*
X013946Y006920D02*
X013946Y007440D01*
X013777Y007354D02*
X013690Y007440D01*
X013517Y007440D01*
X013430Y007354D01*
X013430Y007007D01*
X013517Y006920D01*
X013690Y006920D01*
X013777Y007007D01*
X013777Y007180D01*
X013603Y007180D01*
X014606Y006286D02*
X014953Y006286D01*
X017320Y006459D02*
X017840Y006459D01*
X017840Y006286D02*
X017840Y006633D01*
X017853Y006820D02*
X017940Y006907D01*
X017940Y007080D01*
X017853Y007167D01*
X017506Y007167D01*
X017420Y007080D01*
X017420Y006907D01*
X017506Y006820D01*
X017593Y006820D01*
X017680Y006907D01*
X017680Y007167D01*
X017827Y007770D02*
X017653Y007943D01*
X017740Y007943D02*
X017480Y007943D01*
X017480Y007770D02*
X017480Y008290D01*
X017740Y008290D01*
X017827Y008204D01*
X017827Y008030D01*
X017740Y007943D01*
X017996Y008030D02*
X018169Y008030D01*
X018511Y008030D02*
X018685Y008030D01*
X018511Y007770D02*
X018511Y008290D01*
X018858Y008290D01*
X018343Y008290D02*
X017996Y008290D01*
X017996Y007770D01*
X018343Y007770D01*
X017320Y006459D02*
X017493Y006286D01*
X017840Y006117D02*
X017840Y005770D01*
X017840Y005943D02*
X017320Y005943D01*
X017493Y005770D01*
X017556Y005583D02*
X017643Y005583D01*
X017730Y005496D01*
X017817Y005583D01*
X017903Y005583D01*
X017990Y005496D01*
X017990Y005322D01*
X017903Y005236D01*
X017990Y005067D02*
X017990Y004720D01*
X017990Y004893D02*
X017470Y004893D01*
X017643Y004720D01*
X017680Y004533D02*
X017853Y004533D01*
X017940Y004446D01*
X017940Y004272D01*
X017853Y004186D01*
X017680Y004186D02*
X017593Y004359D01*
X017593Y004446D01*
X017680Y004533D01*
X017420Y004533D02*
X017420Y004186D01*
X017680Y004186D01*
X017940Y004017D02*
X017940Y003670D01*
X017940Y003843D02*
X017420Y003843D01*
X017593Y003670D01*
X017567Y003340D02*
X017480Y003254D01*
X017480Y002907D01*
X017567Y002820D01*
X017740Y002820D01*
X017827Y002907D01*
X017827Y003080D01*
X017653Y003080D01*
X017827Y003254D02*
X017740Y003340D01*
X017567Y003340D01*
X017996Y003340D02*
X018343Y002820D01*
X018343Y003340D01*
X018511Y003340D02*
X018772Y003340D01*
X018858Y003254D01*
X018858Y002907D01*
X018772Y002820D01*
X018511Y002820D01*
X018511Y003340D01*
X017996Y003340D02*
X017996Y002820D01*
X015090Y004446D02*
X014570Y004446D01*
X014830Y004186D01*
X017470Y005322D02*
X017556Y005236D01*
X017470Y005322D02*
X017470Y005496D01*
X017556Y005583D01*
X017730Y005496D02*
X017730Y005409D01*
X011190Y005793D02*
X010670Y005793D01*
X010843Y005620D01*
X010877Y011920D02*
X010703Y012093D01*
X010790Y012093D02*
X010530Y012093D01*
X010530Y011920D02*
X010530Y012440D01*
X010790Y012440D01*
X010877Y012354D01*
X010877Y012180D01*
X010790Y012093D01*
X011046Y012180D02*
X011219Y012180D01*
X011561Y012180D02*
X011735Y012180D01*
X011561Y011920D02*
X011561Y012440D01*
X011908Y012440D01*
X011393Y012440D02*
X011046Y012440D01*
X011046Y011920D01*
X011393Y011920D01*
X013680Y011920D02*
X013680Y012440D01*
X013940Y012440D01*
X014027Y012354D01*
X014027Y012180D01*
X013940Y012093D01*
X013680Y012093D01*
X013853Y012093D02*
X014027Y011920D01*
X014196Y011920D02*
X014543Y011920D01*
X014711Y011920D02*
X014711Y012440D01*
X015058Y012440D01*
X014885Y012180D02*
X014711Y012180D01*
X014369Y012180D02*
X014196Y012180D01*
X014196Y012440D02*
X014196Y011920D01*
X014196Y012440D02*
X014543Y012440D01*
D12*
X019332Y015674D02*
X019332Y000226D01*
X025710Y000226D01*
X025710Y015674D01*
X019332Y015674D01*
D13*
X013205Y013680D02*
X013130Y013755D01*
X012980Y013755D01*
X012905Y013680D01*
X012905Y013380D01*
X012980Y013305D01*
X013130Y013305D01*
X013205Y013380D01*
X013205Y013530D01*
X013055Y013530D01*
X012744Y013305D02*
X012744Y013755D01*
X012444Y013755D02*
X012744Y013305D01*
X012444Y013305D02*
X012444Y013755D01*
X012287Y013755D02*
X012137Y013755D01*
X012212Y013755D02*
X012212Y013305D01*
X012137Y013305D02*
X012287Y013305D01*
X011977Y013380D02*
X011902Y013305D01*
X011752Y013305D01*
X011677Y013380D01*
X011752Y013530D02*
X011902Y013530D01*
X011977Y013455D01*
X011977Y013380D01*
X011752Y013530D02*
X011677Y013605D01*
X011677Y013680D01*
X011752Y013755D01*
X011902Y013755D01*
X011977Y013680D01*
X011517Y013605D02*
X011517Y013305D01*
X011517Y013530D02*
X011216Y013530D01*
X011216Y013605D02*
X011216Y013305D01*
X011056Y013380D02*
X010981Y013305D01*
X010831Y013305D01*
X010756Y013380D01*
X010756Y013680D01*
X010831Y013755D01*
X010981Y013755D01*
X011056Y013680D01*
X011216Y013605D02*
X011367Y013755D01*
X011517Y013605D01*
X010525Y002375D02*
X010525Y001925D01*
X010225Y002375D01*
X010225Y001925D01*
X010068Y001925D02*
X009918Y001925D01*
X009993Y001925D02*
X009993Y002375D01*
X009918Y002375D02*
X010068Y002375D01*
X009758Y002300D02*
X009758Y002150D01*
X009682Y002075D01*
X009457Y002075D01*
X009457Y001925D02*
X009457Y002375D01*
X009682Y002375D01*
X009758Y002300D01*
X009297Y002150D02*
X008997Y002150D01*
X008837Y001925D02*
X008837Y002375D01*
X008536Y002375D02*
X008536Y001925D01*
X008380Y001925D02*
X008230Y001925D01*
X008305Y001925D02*
X008305Y002375D01*
X008230Y002375D02*
X008380Y002375D01*
X008536Y002375D02*
X008837Y001925D01*
X014566Y001850D02*
X014641Y001775D01*
X014791Y001775D01*
X014866Y001850D01*
X014866Y002150D01*
X014791Y002225D01*
X014641Y002225D01*
X014566Y002150D01*
X014566Y001850D01*
X015026Y001850D02*
X015026Y002225D01*
X015326Y002225D02*
X015326Y001850D01*
X015251Y001775D01*
X015101Y001775D01*
X015026Y001850D01*
X015486Y002225D02*
X015787Y002225D01*
X015637Y002225D02*
X015637Y001775D01*
X015947Y002000D02*
X016247Y002000D01*
X016407Y001925D02*
X016632Y001925D01*
X016708Y002000D01*
X016708Y002150D01*
X016632Y002225D01*
X016407Y002225D01*
X016407Y001775D01*
X016868Y001775D02*
X017018Y001775D01*
X016943Y001775D02*
X016943Y002225D01*
X016868Y002225D02*
X017018Y002225D01*
X017175Y002225D02*
X017475Y001775D01*
X017475Y002225D01*
X017175Y002225D02*
X017175Y001775D01*
M02*
