G75*
%MOIN*%
%OFA0B0*%
%FSLAX24Y24*%
%IPPOS*%
%LPD*%
%AMOC8*
5,1,8,0,0,1.08239X$1,22.5*
%
%ADD10C,0.0000*%
%ADD11C,0.0594*%
%ADD12C,0.1660*%
%ADD13C,0.1601*%
%ADD14OC8,0.0600*%
%ADD15C,0.0160*%
%ADD16C,0.0660*%
D10*
X001360Y000100D02*
X001360Y015820D01*
X024502Y015820D01*
X024502Y000100D01*
X001360Y000100D01*
D11*
X004660Y004094D03*
X005660Y004544D03*
X004660Y004995D03*
X005660Y005446D03*
X004660Y005897D03*
X005660Y006348D03*
X004660Y006798D03*
X005660Y007249D03*
X004660Y007700D03*
X005660Y008151D03*
X004660Y008602D03*
X005660Y009052D03*
X004660Y009503D03*
X005660Y009954D03*
X004660Y010405D03*
X005660Y010856D03*
X004660Y011306D03*
X005660Y011757D03*
X003660Y010856D03*
X003660Y009954D03*
X003660Y009052D03*
X003660Y008151D03*
X003660Y007249D03*
X003660Y006348D03*
X003660Y005446D03*
X003660Y004544D03*
X020210Y004544D03*
X021210Y004094D03*
X022210Y004544D03*
X021210Y004995D03*
X020210Y005446D03*
X021210Y005897D03*
X020210Y006348D03*
X021210Y006798D03*
X020210Y007249D03*
X021210Y007700D03*
X020210Y008151D03*
X021210Y008602D03*
X020210Y009052D03*
X021210Y009503D03*
X020210Y009954D03*
X021210Y010405D03*
X020210Y010856D03*
X021210Y011306D03*
X020210Y011757D03*
X022210Y010856D03*
X022210Y009954D03*
X022210Y009052D03*
X022210Y008151D03*
X022210Y007249D03*
X022210Y006348D03*
X022210Y005446D03*
D12*
X004660Y001391D03*
X004660Y014509D03*
D13*
X021210Y014509D03*
X021210Y001391D03*
D14*
X016760Y003100D03*
X015760Y003100D03*
X015760Y004100D03*
X016760Y004100D03*
X016760Y005100D03*
X015760Y005100D03*
X015760Y006100D03*
X016760Y006100D03*
X016760Y007100D03*
X015760Y007100D03*
X015760Y008100D03*
X016760Y008100D03*
X016760Y009100D03*
X015760Y009100D03*
X015760Y010100D03*
X016760Y010100D03*
X016760Y011100D03*
X015760Y011100D03*
X015760Y012100D03*
X016760Y012100D03*
X012810Y014500D03*
X009960Y012100D03*
X008960Y012100D03*
X008960Y011100D03*
X009960Y011100D03*
X009960Y010100D03*
X008960Y010100D03*
X008960Y009100D03*
X009960Y009100D03*
X009960Y008100D03*
X008960Y008100D03*
X008960Y007100D03*
X009960Y007100D03*
X009960Y006100D03*
X008960Y006100D03*
X008960Y005100D03*
X009960Y005100D03*
X009960Y004100D03*
X008960Y004100D03*
X008960Y003100D03*
X009960Y003100D03*
D15*
X015760Y003100D01*
X016260Y003600D01*
X020716Y003600D01*
X021210Y004094D01*
X020210Y004544D02*
X019766Y004100D01*
X016760Y004100D01*
X016260Y004600D02*
X018610Y004600D01*
X019005Y004995D01*
X021210Y004995D01*
X020210Y005446D02*
X018756Y005446D01*
X018752Y005450D01*
X018610Y005450D01*
X018260Y005100D01*
X016760Y005100D01*
X016260Y005600D02*
X018010Y005600D01*
X018307Y005897D01*
X021210Y005897D01*
X020210Y006348D02*
X018008Y006348D01*
X017760Y006100D01*
X016760Y006100D01*
X016260Y005600D02*
X015760Y005100D01*
X009960Y005100D01*
X009460Y005600D01*
X007560Y005600D01*
X007263Y005897D01*
X004660Y005897D01*
X005660Y006348D02*
X005662Y006350D01*
X007560Y006350D01*
X007810Y006100D01*
X008960Y006100D01*
X009460Y006600D02*
X008010Y006600D01*
X007812Y006798D01*
X004660Y006798D01*
X005660Y007249D02*
X008061Y007249D01*
X008210Y007100D01*
X008960Y007100D01*
X009460Y007600D02*
X008410Y007600D01*
X008310Y007700D01*
X004660Y007700D01*
X004111Y007700D01*
X003660Y007249D01*
X003660Y006348D01*
X003660Y005446D01*
X003660Y004544D01*
X003660Y003900D01*
X004460Y003100D01*
X008960Y003100D01*
X009560Y002500D01*
X016160Y002500D01*
X016760Y003100D01*
X021410Y003100D01*
X022210Y003900D01*
X022210Y004544D01*
X022210Y005446D01*
X022210Y006348D01*
X022210Y007249D01*
X021759Y007700D01*
X021210Y007700D01*
X017310Y007700D01*
X017210Y007600D01*
X016260Y007600D01*
X015760Y007100D01*
X009960Y007100D01*
X009460Y007600D01*
X008960Y008100D02*
X008960Y008150D01*
X005660Y008150D01*
X005660Y008151D02*
X003660Y008151D01*
X003660Y009052D01*
X003660Y009954D01*
X003660Y010856D01*
X003660Y011700D01*
X004560Y012600D01*
X009460Y012600D01*
X009960Y012100D01*
X015760Y012100D01*
X016260Y012600D01*
X021360Y012600D01*
X022210Y011750D01*
X022210Y010856D01*
X022210Y009954D01*
X022210Y009052D01*
X022210Y008151D01*
X020210Y008151D01*
X016811Y008151D01*
X016760Y008100D01*
X016262Y008602D02*
X015760Y008100D01*
X009960Y008100D01*
X009458Y008602D01*
X004660Y008602D01*
X005660Y009052D02*
X008912Y009052D01*
X008960Y009100D01*
X008410Y009600D02*
X008313Y009503D01*
X004660Y009503D01*
X005660Y009954D02*
X008014Y009954D01*
X008110Y010050D01*
X008910Y010050D01*
X008960Y010100D01*
X009460Y009600D02*
X008410Y009600D01*
X009460Y009600D02*
X009960Y009100D01*
X015760Y009100D01*
X016260Y009600D01*
X017260Y009600D01*
X017357Y009503D01*
X021210Y009503D01*
X020210Y009052D02*
X016808Y009052D01*
X016760Y009100D01*
X016262Y008602D02*
X021210Y008602D01*
X020210Y009052D02*
X019862Y009052D01*
X020210Y008151D02*
X020159Y008100D01*
X020210Y007249D02*
X017409Y007249D01*
X017260Y007100D01*
X016760Y007100D01*
X016260Y006600D02*
X017460Y006600D01*
X017658Y006798D01*
X021210Y006798D01*
X016260Y006600D02*
X015760Y006100D01*
X009960Y006100D01*
X009460Y006600D01*
X008960Y005100D02*
X007210Y005100D01*
X006864Y005446D01*
X005660Y005446D01*
X006465Y004995D02*
X004660Y004995D01*
X005660Y004544D02*
X006104Y004100D01*
X008960Y004100D01*
X009460Y003600D02*
X005154Y003600D01*
X004660Y004094D01*
X006465Y004995D02*
X006860Y004600D01*
X009460Y004600D01*
X009960Y004100D01*
X015760Y004100D01*
X016260Y004600D01*
X009960Y003100D02*
X009460Y003600D01*
X017410Y010100D02*
X017556Y009954D01*
X020210Y009954D01*
X021210Y010405D02*
X017855Y010405D01*
X017660Y010600D01*
X016260Y010600D01*
X015760Y010100D01*
X009960Y010100D01*
X009460Y010600D01*
X007910Y010600D01*
X007715Y010405D01*
X004660Y010405D01*
X005660Y010856D02*
X007416Y010856D01*
X007660Y011100D01*
X008960Y011100D01*
X009460Y011600D02*
X007360Y011600D01*
X007066Y011306D01*
X004660Y011306D01*
X005660Y011757D02*
X006003Y012100D01*
X008960Y012100D01*
X009460Y011600D02*
X009960Y011100D01*
X015760Y011100D01*
X016260Y011600D01*
X018060Y011600D01*
X018354Y011306D01*
X021210Y011306D01*
X020210Y010856D02*
X018104Y010856D01*
X017860Y011100D01*
X016760Y011100D01*
X016760Y010100D02*
X017410Y010100D01*
X019867Y012100D02*
X020210Y011757D01*
X019867Y012100D02*
X016760Y012100D01*
X012810Y014500D02*
X012701Y014500D01*
X012710Y014509D01*
D16*
X004660Y014509D01*
X002310Y012159D01*
X002310Y003741D01*
X004660Y001391D01*
X021210Y001391D02*
X023460Y003641D01*
X023460Y012259D01*
X021210Y014509D01*
X012710Y014509D01*
M02*
