G75*
%MOIN*%
%OFA0B0*%
%FSLAX24Y24*%
%IPPOS*%
%LPD*%
%AMOC8*
5,1,8,0,0,1.08239X$1,22.5*
%
%ADD10C,0.0594*%
%ADD11C,0.1660*%
%ADD12C,0.1601*%
%ADD13OC8,0.0600*%
%ADD14C,0.0160*%
D10*
X004660Y004094D03*
X005660Y004544D03*
X004660Y004995D03*
X005660Y005446D03*
X004660Y005897D03*
X005660Y006348D03*
X004660Y006798D03*
X005660Y007249D03*
X004660Y007700D03*
X005660Y008151D03*
X004660Y008602D03*
X005660Y009052D03*
X004660Y009503D03*
X005660Y009954D03*
X004660Y010405D03*
X005660Y010856D03*
X004660Y011306D03*
X005660Y011757D03*
X003660Y010856D03*
X003660Y009954D03*
X003660Y009052D03*
X003660Y008151D03*
X003660Y007249D03*
X003660Y006348D03*
X003660Y005446D03*
X003660Y004544D03*
X020210Y004544D03*
X021210Y004094D03*
X022210Y004544D03*
X021210Y004995D03*
X020210Y005446D03*
X021210Y005897D03*
X020210Y006348D03*
X021210Y006798D03*
X020210Y007249D03*
X021210Y007700D03*
X020210Y008151D03*
X021210Y008602D03*
X020210Y009052D03*
X021210Y009503D03*
X020210Y009954D03*
X021210Y010405D03*
X020210Y010856D03*
X021210Y011306D03*
X020210Y011757D03*
X022210Y010856D03*
X022210Y009954D03*
X022210Y009052D03*
X022210Y008151D03*
X022210Y007249D03*
X022210Y006348D03*
X022210Y005446D03*
D11*
X004660Y001391D03*
X004660Y014509D03*
D12*
X021210Y014509D03*
X021210Y001391D03*
D13*
X016760Y003100D03*
X015760Y003100D03*
X015760Y004100D03*
X016760Y004100D03*
X016760Y005100D03*
X015760Y005100D03*
X015760Y006100D03*
X016760Y006100D03*
X016760Y007100D03*
X015760Y007100D03*
X015760Y008100D03*
X016760Y008100D03*
X016760Y009100D03*
X015760Y009100D03*
X015760Y010100D03*
X016760Y010100D03*
X016760Y011100D03*
X015760Y011100D03*
X015760Y012100D03*
X016760Y012100D03*
X012810Y014500D03*
X009960Y012100D03*
X008960Y012100D03*
X008960Y011100D03*
X009960Y011100D03*
X009960Y010100D03*
X008960Y010100D03*
X008960Y009100D03*
X009960Y009100D03*
X009960Y008100D03*
X008960Y008100D03*
X008960Y007100D03*
X009960Y007100D03*
X009960Y006100D03*
X008960Y006100D03*
X008960Y005100D03*
X009960Y005100D03*
X009960Y004100D03*
X008960Y004100D03*
X008960Y003100D03*
X009960Y003100D03*
D14*
X008960Y004100D02*
X009460Y004600D01*
X016260Y004600D01*
X016760Y004100D01*
X016760Y005100D02*
X016260Y005600D01*
X009460Y005600D01*
X008960Y005100D01*
X008960Y006100D02*
X008960Y006150D01*
X009410Y006600D01*
X016260Y006600D01*
X016760Y006100D01*
X016760Y007100D02*
X016260Y007600D01*
X009460Y007600D01*
X008960Y007100D01*
X008960Y008100D02*
X009460Y008600D01*
X016260Y008600D01*
X016760Y008100D01*
X016760Y009100D02*
X016260Y009600D01*
X009410Y009600D01*
X008960Y009150D01*
X008960Y009100D01*
X008960Y010100D02*
X008960Y010150D01*
X009410Y010600D01*
X016260Y010600D01*
X016760Y010100D01*
X016760Y011100D02*
X016260Y011600D01*
X009410Y011600D01*
X008960Y011150D01*
X008960Y011100D01*
X008960Y012100D02*
X009460Y012600D01*
X016260Y012600D01*
X016760Y012100D01*
M02*
