%
M48
M72
T01C0.0394
T02C0.0400
T03C0.1201
T04C0.1260
%
T01
X4660Y4094
X5660Y4544
X4660Y4995
X5660Y5446
X4660Y5897
X5660Y6348
X4660Y6798
X5660Y7249
X4660Y7700
X5660Y8151
X4660Y8602
X5660Y9052
X4660Y9503
X5660Y9954
X4660Y10405
X5660Y10856
X4660Y11306
X5660Y11757
X3660Y10856
X3660Y9954
X3660Y9052
X3660Y8151
X3660Y7249
X3660Y6348
X3660Y5446
X3660Y4544
X20210Y4544
X21210Y4094
X22210Y4544
X21210Y4995
X20210Y5446
X21210Y5897
X20210Y6348
X21210Y6798
X20210Y7249
X21210Y7700
X20210Y8151
X21210Y8602
X20210Y9052
X21210Y9503
X20210Y9954
X21210Y10405
X20210Y10856
X21210Y11306
X20210Y11757
X22210Y10856
X22210Y9954
X22210Y9052
X22210Y8151
X22210Y7249
X22210Y6348
X22210Y5446
T02
X16760Y5100
X15760Y5100
X15760Y6100
X16760Y6100
X16760Y7100
X15760Y7100
X15760Y8100
X16760Y8100
X16760Y9100
X15760Y9100
X15760Y10100
X16760Y10100
X16760Y11100
X15760Y11100
X15760Y12100
X16760Y12100
X12810Y14500
X9960Y12100
X8960Y12100
X8960Y11100
X9960Y11100
X9960Y10100
X8960Y10100
X8960Y9100
X9960Y9100
X9960Y8100
X8960Y8100
X8960Y7100
X9960Y7100
X9960Y6100
X8960Y6100
X8960Y5100
X9960Y5100
X9960Y4100
X8960Y4100
X8960Y3100
X9960Y3100
X15760Y3100
X16760Y3100
X16760Y4100
X15760Y4100
T03
X21210Y1391
X21210Y14509
T04
X4660Y1391
X4660Y14509
M30
