G75*
%MOIN*%
%OFA0B0*%
%FSLAX24Y24*%
%IPPOS*%
%LPD*%
%AMOC8*
5,1,8,0,0,1.08239X$1,22.5*
%
%ADD10C,0.0120*%
%ADD11C,0.0040*%
D10*
X000160Y000226D02*
X006538Y000226D01*
X006538Y015674D01*
X000160Y015674D01*
X000160Y000226D01*
D11*
X002180Y000970D02*
X002180Y001200D01*
X002257Y001277D01*
X002564Y001277D01*
X002640Y001200D01*
X002640Y000970D01*
X002180Y000970D01*
X002410Y001430D02*
X002410Y001737D01*
X002487Y001891D02*
X002410Y001968D01*
X002410Y002121D01*
X002333Y002198D01*
X002257Y002198D01*
X002180Y002121D01*
X002180Y001968D01*
X002257Y001891D01*
X002487Y001891D02*
X002564Y001891D01*
X002640Y001968D01*
X002640Y002121D01*
X002564Y002198D01*
X002640Y002351D02*
X002257Y002351D01*
X002180Y002428D01*
X002180Y002581D01*
X002257Y002658D01*
X002640Y002658D01*
X002640Y002812D02*
X002640Y003042D01*
X002564Y003118D01*
X002487Y003118D01*
X002410Y003042D01*
X002410Y002812D01*
X002180Y002812D02*
X002180Y003042D01*
X002257Y003118D01*
X002333Y003118D01*
X002410Y003042D01*
X002410Y003272D02*
X002410Y003579D01*
X002564Y003732D02*
X002640Y003809D01*
X002640Y003963D01*
X002564Y004039D01*
X002487Y004039D01*
X002180Y003732D01*
X002180Y004039D01*
X002257Y004193D02*
X002180Y004269D01*
X002180Y004423D01*
X002257Y004500D01*
X002333Y004500D01*
X002410Y004423D01*
X002410Y004193D01*
X002257Y004193D01*
X002410Y004193D02*
X002564Y004346D01*
X002640Y004500D01*
X002410Y004653D02*
X002410Y004960D01*
X002180Y005114D02*
X002640Y005114D01*
X002487Y005267D01*
X002640Y005420D01*
X002180Y005420D01*
X002180Y005574D02*
X002487Y005574D01*
X002640Y005727D01*
X002487Y005881D01*
X002180Y005881D01*
X002180Y006034D02*
X002180Y006341D01*
X002180Y006495D02*
X002180Y006802D01*
X002410Y006648D02*
X002410Y006495D01*
X002640Y006495D02*
X002180Y006495D01*
X002640Y006495D02*
X002640Y006802D01*
X002640Y006034D02*
X002180Y006034D01*
X002410Y005881D02*
X002410Y005574D01*
X002180Y002812D02*
X002640Y002812D01*
X006680Y001584D02*
X007140Y001584D01*
X007140Y001277D02*
X006680Y001584D01*
X006680Y001277D02*
X007140Y001277D01*
X007140Y001123D02*
X007140Y000970D01*
X007140Y001047D02*
X006680Y001047D01*
X006680Y001123D02*
X006680Y000970D01*
X024730Y008564D02*
X024730Y008794D01*
X024807Y008871D01*
X025114Y008871D01*
X025190Y008794D01*
X025190Y008564D01*
X024730Y008564D01*
X024960Y009024D02*
X024960Y009331D01*
X025037Y009485D02*
X024960Y009562D01*
X024960Y009715D01*
X024883Y009792D01*
X024807Y009792D01*
X024730Y009715D01*
X024730Y009562D01*
X024807Y009485D01*
X025037Y009485D02*
X025114Y009485D01*
X025190Y009562D01*
X025190Y009715D01*
X025114Y009792D01*
X025190Y009945D02*
X024807Y009945D01*
X024730Y010022D01*
X024730Y010175D01*
X024807Y010252D01*
X025190Y010252D01*
X025190Y010406D02*
X025190Y010636D01*
X025114Y010713D01*
X025037Y010713D01*
X024960Y010636D01*
X024960Y010406D01*
X024960Y010636D02*
X024883Y010713D01*
X024807Y010713D01*
X024730Y010636D01*
X024730Y010406D01*
X025190Y010406D01*
X024960Y010866D02*
X024960Y011173D01*
X025114Y011326D02*
X025190Y011403D01*
X025190Y011557D01*
X025114Y011633D01*
X025037Y011633D01*
X024730Y011326D01*
X024730Y011633D01*
X024807Y011787D02*
X024730Y011864D01*
X024730Y012017D01*
X024807Y012094D01*
X024883Y012094D01*
X024960Y012017D01*
X024960Y011787D01*
X024807Y011787D01*
X024960Y011787D02*
X025114Y011940D01*
X025190Y012094D01*
X024960Y012247D02*
X024960Y012554D01*
X024960Y012708D02*
X024960Y012861D01*
X024730Y012708D02*
X025190Y012708D01*
X025190Y013015D01*
X025190Y013168D02*
X024730Y013168D01*
X024730Y013475D01*
X024730Y013628D02*
X025190Y013628D01*
X025037Y013782D01*
X025190Y013935D01*
X024730Y013935D01*
X024730Y014089D02*
X025037Y014089D01*
X025190Y014242D01*
X025037Y014396D01*
X024730Y014396D01*
X024730Y014549D02*
X024730Y014856D01*
X024730Y015010D02*
X024730Y015317D01*
X024960Y015163D02*
X024960Y015010D01*
X025190Y015010D02*
X024730Y015010D01*
X025190Y015010D02*
X025190Y015317D01*
X025190Y014549D02*
X024730Y014549D01*
X024960Y014396D02*
X024960Y014089D01*
X025190Y013475D02*
X025190Y013168D01*
X024960Y013168D02*
X024960Y013321D01*
X019190Y014166D02*
X019114Y014089D01*
X018807Y014089D01*
X018730Y014166D01*
X018730Y014319D01*
X018807Y014396D01*
X019114Y014396D01*
X019190Y014319D01*
X019190Y014166D01*
X019190Y014549D02*
X018807Y014549D01*
X018730Y014626D01*
X018730Y014779D01*
X018807Y014856D01*
X019190Y014856D01*
X019190Y015010D02*
X019190Y015317D01*
X019190Y015163D02*
X018730Y015163D01*
M02*
